<svg xmlns="http://www.w3.org/2000/svg" width="16" height="16" viewBox="0 0 16 16"><g><g><path d="M15.944 11.299c-.065 1.282-.357 2.417-1.292 3.352-.935.94-2.07 1.232-3.352 1.293-1.32.075-5.28.075-6.6 0-1.281-.065-2.413-.357-3.352-1.293C.41 13.716.117 12.581.056 11.3c-.075-1.321-.075-5.28 0-6.601C.12 3.416.41 2.28 1.348 1.345 2.288.41 3.422.117 4.7.056c1.32-.075 5.28-.075 6.6 0 1.281.064 2.417.357 3.352 1.293.938.935 1.231 2.07 1.292 3.352.075 1.321.075 5.277 0 6.598zm-4.63-7.569a.957.957 0 1 1 1.914 0 .957.957 0 0 1-1.914 0zm.79 4.27a4.095 4.095 0 0 1-4.102 4.102A4.095 4.095 0 0 1 3.9 8a4.095 4.095 0 0 1 4.102-4.102A4.095 4.095 0 0 1 12.103 8zm-1.436 0a2.67 2.67 0 0 0-2.666-2.667A2.67 2.67 0 0 0 5.335 8c0 1.47 1.2 2.667 2.667 2.667A2.672 2.672 0 0 0 10.668 8zm2.049 6.237a2.7 2.7 0 0 0 1.52-1.52c.359-.901.339-2.87.326-4.147-.002-.212-.004-.404-.004-.57 0-.166.002-.358.004-.57.013-1.276.033-3.243-.325-4.146a2.7 2.7 0 0 0-1.521-1.521c-.903-.357-2.881-.338-4.157-.325l-.558.003c-.166 0-.358-.001-.57-.004-1.276-.013-3.242-.032-4.145.326a2.7 2.7 0 0 0-1.521 1.52c-.356.904-.337 2.883-.325 4.159.002.207.004.396.004.558 0 .166-.002.358-.004.57-.013 1.276-.033 3.243.325 4.146a2.7 2.7 0 0 0 1.52 1.521c.903.356 2.882.338 4.158.325l.558-.003c.165 0 .358.002.57.004 1.275.012 3.242.032 4.145-.326z"/></g></g></svg>